<svg xmlns="http://www.w3.org/2000/svg" viewBox="0 0 256 256" clip-path="url(#clip)" width="512" height="512"><defs><clipPath id="clip" clipPathUnits="objectBoundingBox"><rect x="0" y="0" width="256" height="256"/></clipPath></defs><rect x="0" y="0" width="256" height="256" fill="rgb(247, 247, 247)"/><path d="M21,1L243,1L243,255L21,255Z" fill="rgb(4, 8, 5)" fill-opacity="0.72"/><path d="M43,69L220,69L220,139L43,139Z" fill="rgb(224, 253, 240)" fill-opacity="0.56"/><path d="M34,140L229,140L229,254L34,254Z" fill="rgb(16, 14, 15)" fill-opacity="0.58"/><path d="M47,45L100,45L100,108L47,108Z" fill="rgb(22, 23, 22)" fill-opacity="0.58"/><path d="M100,70L221,70L221,112L100,112Z" fill="rgb(225, 249, 237)" fill-opacity="0.37"/><path d="M91,13L239,13L239,68L91,68Z" fill="rgb(40, 29, 28)" fill-opacity="0.84"/><path d="M22,19L43,19L43,238L22,238Z" fill="rgb(46, 46, 46)" fill-opacity="0.90"/><path d="M45,69L210,69L210,81L45,81Z" fill="rgb(202, 225, 214)" fill-opacity="0.99"/><path d="M44,122L220,122L220,125L44,125Z" fill="rgb(217, 241, 230)" fill-opacity="0.59"/><path d="M141,70L174,70L174,138L141,138Z" fill="rgb(206, 229, 219)" fill-opacity="0.55"/><path d="M221,55L244,55L244,230L221,230Z" fill="rgb(17, 15, 18)" fill-opacity="0.34"/><path d="M-15,-18L33,-18L33,13L-15,13Z" fill="rgb(255, 255, 255)" fill-opacity="0.81"/><path d="M47,81L99,81L99,108L47,108Z" fill="rgb(1, 2, 1)" fill-opacity="0.74"/><path d="M172,113L201,113L201,119L172,119Z" fill="rgb(18, 19, 18)" fill-opacity="0.51"/><path d="M120,83L198,83L198,107L120,107Z" fill="rgb(136, 152, 145)" fill-opacity="0.51"/><path d="M39,5L225,5L225,8L39,8Z" fill="rgb(8, 7, 8)" fill-opacity="0.75"/><path d="M49,194L204,194L204,238L49,238Z" fill="rgb(23, 23, 23)" fill-opacity="0.48"/><path d="M28,9L120,9L120,28L28,28Z" fill="rgb(54, 54, 54)" fill-opacity="0.84"/><path d="M63,83L82,83L82,131L63,131Z" fill="rgb(74, 82, 78)" fill-opacity="0.50"/><path d="M20,47L44,47L44,229L20,229Z" fill="rgb(49, 48, 48)" fill-opacity="0.33"/><path d="M133,126L151,126L151,135L133,135Z" fill="rgb(96, 106, 101)" fill-opacity="0.70"/><path d="M125,143L235,143L235,173L125,173Z" fill="rgb(58, 58, 58)" fill-opacity="0.48"/><path d="M140,82L176,82L176,107L140,107Z" fill="rgb(215, 239, 228)" fill-opacity="0.60"/><path d="M120,83L138,83L138,122L120,122Z" fill="rgb(57, 64, 62)" fill-opacity="0.40"/><path d="M130,140L238,140L238,246L130,246Z" fill="rgb(46, 46, 46)" fill-opacity="0.45"/><path d="M76,98L83,98L83,121L76,121Z" fill="rgb(103, 114, 109)" fill-opacity="0.70"/><path d="M151,121L221,121L221,139L151,139Z" fill="rgb(201, 223, 213)" fill-opacity="0.46"/><path d="M129,164L147,164L147,194L129,194Z" fill="rgb(94, 94, 94)" fill-opacity="0.41"/><path d="M236,23L238,23L238,237L236,237Z" fill="rgb(9, 11, 11)" fill-opacity="0.74"/><path d="M-1,243L33,243L33,259L-1,259Z" fill="rgb(255, 255, 255)" fill-opacity="0.78"/><path d="M227,22L236,22L236,244L227,244Z" fill="rgb(57, 58, 58)" fill-opacity="0.89"/><path d="M29,28L34,28L34,249L29,249Z" fill="rgb(63, 63, 63)" fill-opacity="0.97"/><path d="M162,143L216,143L216,151L162,151Z" fill="rgb(102, 102, 102)" fill-opacity="0.58"/><path d="M83,109L120,109L120,122L83,122Z" fill="rgb(209, 232, 222)" fill-opacity="0.73"/><path d="M-4,-4L20,-4L20,262L-4,262Z" fill="rgb(255, 255, 255)" fill-opacity="1.00"/><path d="M130,150L224,150L224,183L130,183Z" fill="rgb(24, 24, 24)" fill-opacity="0.28"/><path d="M45,135L210,135L210,138L45,138Z" fill="rgb(206, 229, 218)" fill-opacity="0.88"/><path d="M43,239L219,239L219,247L43,247Z" fill="rgb(74, 74, 75)" fill-opacity="0.61"/><path d="M52,126L128,126L128,134L52,134Z" fill="rgb(90, 100, 95)" fill-opacity="0.33"/><path d="M177,113L196,113L196,135L177,135Z" fill="rgb(107, 119, 114)" fill-opacity="0.41"/><path d="M122,94L170,94L170,109L122,109Z" fill="rgb(198, 221, 210)" fill-opacity="0.45"/><path d="M221,5L229,5L229,155L221,155Z" fill="rgb(45, 45, 45)" fill-opacity="1.00"/><path d="M67,200L125,200L125,236L67,236Z" fill="rgb(21, 21, 21)" fill-opacity="0.75"/><path d="M6,-7L26,-7L26,21L6,21Z" fill="rgb(255, 255, 255)" fill-opacity="0.63"/><path d="M120,12L218,12L218,55L120,55Z" fill="rgb(46, 16, 10)" fill-opacity="0.32"/><path d="M179,183L225,183L225,205L179,205Z" fill="rgb(27, 27, 27)" fill-opacity="0.74"/><path d="M47,165L64,165L64,173L47,173Z" fill="rgb(95, 95, 95)" fill-opacity="0.66"/><path d="M64,110L74,110L74,122L64,122Z" fill="rgb(40, 44, 42)" fill-opacity="0.47"/><path d="M45,68L214,68L214,70L45,70Z" fill="rgb(133, 148, 141)" fill-opacity="0.43"/><path d="M214,82L216,82L216,109L214,109Z" fill="rgb(0, 0, 0)" fill-opacity="0.43"/><path d="M27,234L34,234L34,246L27,246Z" fill="rgb(24, 24, 25)" fill-opacity="0.68"/><path d="M32,20L36,20L36,239L32,239Z" fill="rgb(58, 58, 58)" fill-opacity="0.64"/><path d="M40,19L124,19L124,28L40,28Z" fill="rgb(30, 30, 31)" fill-opacity="0.39"/><path d="M220,108L202,108L202,138L220,138Z" fill="rgb(206, 229, 219)" fill-opacity="0.71"/><path d="M232,244L257,244L257,268L232,268Z" fill="rgb(255, 255, 255)" fill-opacity="0.85"/><path d="M45,37L92,37L92,28L45,28Z" fill="rgb(192, 189, 191)" fill-opacity="0.46"/><path d="M39,54L225,54L225,68L39,68Z" fill="rgb(39, 39, 40)" fill-opacity="0.81"/><path d="M229,173L236,173L236,248L229,248Z" fill="rgb(58, 58, 58)" fill-opacity="0.86"/><path d="M100,81L107,81L107,135L100,135Z" fill="rgb(194, 216, 206)" fill-opacity="1.00"/><path d="M109,173L130,173L130,210L109,210Z" fill="rgb(39, 39, 39)" fill-opacity="0.54"/><path d="M120,110L140,110L140,122L120,122Z" fill="rgb(83, 93, 88)" fill-opacity="0.51"/><path d="M3,-2L22,-2L22,31L3,31Z" fill="rgb(255, 255, 255)" fill-opacity="0.64"/><path d="M118,99L128,99L128,107L118,107Z" fill="rgb(91, 102, 97)" fill-opacity="0.67"/><path d="M200,78L214,78L214,138L200,138Z" fill="rgb(200, 222, 212)" fill-opacity="0.62"/><path d="M41,66L220,66L220,63L41,63Z" fill="rgb(19, 21, 21)" fill-opacity="0.46"/><path d="M91,21L120,21L120,62L91,62Z" fill="rgb(43, 45, 45)" fill-opacity="0.74"/><path d="M169,194L217,194L217,200L169,200Z" fill="rgb(43, 43, 43)" fill-opacity="0.65"/><path d="M134,219L144,219L144,238L134,238Z" fill="rgb(16, 16, 16)" fill-opacity="0.53"/><path d="M218,137L225,137L225,236L218,236Z" fill="rgb(31, 31, 31)" fill-opacity="0.47"/><path d="M47,48L62,48L62,53L47,53Z" fill="rgb(99, 98, 99)" fill-opacity="0.64"/><path d="M46,248L220,248L220,250L46,250Z" fill="rgb(0, 0, 0)" fill-opacity="0.69"/><path d="M48,254L214,254L214,255L48,255Z" fill="rgb(35, 34, 35)" fill-opacity="0.85"/><path d="M245,-1L280,-1L280,264L245,264Z" fill="rgb(255, 255, 255)" fill-opacity="1.00"/><path d="M181,218L226,218L226,239L181,239Z" fill="rgb(1, 2, 2)" fill-opacity="0.18"/><path d="M37,198L84,198L84,209L37,209Z" fill="rgb(46, 46, 46)" fill-opacity="0.60"/><path d="M235,29L232,29L232,232L235,232Z" fill="rgb(83, 83, 83)" fill-opacity="0.38"/><path d="M141,246L233,246L233,249L141,249Z" fill="rgb(2, 2, 2)" fill-opacity="0.26"/><path d="M47,138L145,138L145,139L47,139Z" fill="rgb(176, 196, 186)" fill-opacity="0.67"/><path d="M140,82L169,82L169,125L140,125Z" fill="rgb(197, 219, 209)" fill-opacity="0.65"/><path d="M24,16L61,16L61,21L24,21Z" fill="rgb(51, 51, 51)" fill-opacity="0.87"/><path d="M233,-7L260,-7L260,16L233,16Z" fill="rgb(255, 255, 255)" fill-opacity="0.75"/><path d="M26,23L28,23L28,201L26,201Z" fill="rgb(4, 3, 3)" fill-opacity="0.68"/><path d="M226,10L238,10L238,17L226,17Z" fill="rgb(27, 28, 28)" fill-opacity="0.72"/><path d="M235,12L237,12L237,151L235,151Z" fill="rgb(14, 15, 15)" fill-opacity="0.45"/><path d="M110,212L126,212L126,235L110,235Z" fill="rgb(2, 2, 3)" fill-opacity="0.54"/><path d="M37,140L161,140L161,163L37,163Z" fill="rgb(42, 42, 42)" fill-opacity="0.67"/><path d="M179,83L193,83L193,94L179,94Z" fill="rgb(50, 56, 54)" fill-opacity="0.48"/><path d="M133,210L218,210L218,211L133,211Z" fill="rgb(13, 13, 13)" fill-opacity="0.45"/><path d="M47,87L68,87L68,104L47,104Z" fill="rgb(0, 0, 0)" fill-opacity="0.73"/><path d="M126,82L133,82L133,93L126,93Z" fill="rgb(9, 11, 10)" fill-opacity="0.61"/><path d="M216,13L239,13L239,20L216,20Z" fill="rgb(51, 54, 54)" fill-opacity="0.55"/><path d="M40,214L108,214L108,224L40,224Z" fill="rgb(37, 37, 37)" fill-opacity="0.48"/><path d="M99,82L85,82L85,107L99,107Z" fill="rgb(0, 0, 0)" fill-opacity="0.91"/><path d="M241,22L257,22L257,-1L241,-1Z" fill="rgb(255, 255, 255)" fill-opacity="0.89"/><path d="M46,9L123,9L123,16L46,16Z" fill="rgb(97, 96, 98)" fill-opacity="0.43"/><path d="M148,183L181,183L181,211L148,211Z" fill="rgb(36, 36, 36)" fill-opacity="0.58"/><path d="M94,125L100,125L100,134L94,134Z" fill="rgb(213, 236, 225)" fill-opacity="0.55"/><path d="M218,28L244,28L244,54L218,54Z" fill="rgb(43, 45, 46)" fill-opacity="0.29"/><path d="M-1,232L23,232L23,262L-1,262Z" fill="rgb(255, 255, 255)" fill-opacity="0.83"/><path d="M137,88L139,88L139,107L137,107Z" fill="rgb(0, 0, 0)" fill-opacity="0.32"/><path d="M78,174L113,174L113,198L78,198Z" fill="rgb(31, 31, 31)" fill-opacity="0.43"/><path d="M166,140L228,140L228,144L166,144Z" fill="rgb(43, 43, 43)" fill-opacity="0.56"/><path d="M43,37L91,37L91,40L43,40Z" fill="rgb(30, 28, 29)" fill-opacity="0.62"/><path d="M31,7L45,7L45,54L31,54Z" fill="rgb(47, 46, 46)" fill-opacity="0.65"/><path d="M106,94L142,94L142,98L106,98Z" fill="rgb(206, 229, 219)" fill-opacity="0.59"/><path d="M88,172L156,172L156,183L88,183Z" fill="rgb(38, 38, 38)" fill-opacity="0.75"/><path d="M169,177L218,177L218,181L169,181Z" fill="rgb(52, 52, 52)" fill-opacity="0.42"/><path d="M242,1L251,1L251,26L242,26Z" fill="rgb(255, 255, 255)" fill-opacity="0.64"/><path d="M243,26L244,26L244,155L243,155Z" fill="rgb(201, 202, 201)" fill-opacity="0.72"/><path d="M224,251L280,251L280,270L224,270Z" fill="rgb(255, 255, 255)" fill-opacity="0.79"/><path d="M185,108L195,108L195,114L185,114Z" fill="rgb(205, 228, 218)" fill-opacity="0.69"/><path d="M175,94L197,94L197,89L175,89Z" fill="rgb(95, 106, 101)" fill-opacity="0.71"/><path d="M104,237L166,237L166,246L104,246Z" fill="rgb(65, 66, 68)" fill-opacity="0.37"/><path d="M122,120L138,120L138,114L122,114Z" fill="rgb(182, 201, 191)" fill-opacity="0.39"/><path d="M48,1L216,1L216,4L48,4Z" fill="rgb(39, 37, 39)" fill-opacity="0.57"/><path d="M169,201L215,201L215,204L169,204Z" fill="rgb(3, 3, 3)" fill-opacity="0.46"/><path d="M47,40L86,40L86,45L47,45Z" fill="rgb(133, 129, 132)" fill-opacity="0.44"/><path d="M143,194L164,194L164,235L143,235Z" fill="rgb(36, 36, 36)" fill-opacity="0.80"/><path d="M59,122L87,122L87,126L59,126Z" fill="rgb(223, 248, 237)" fill-opacity="0.45"/><path d="M244,13L275,13L275,155L244,155Z" fill="rgb(255, 255, 255)" fill-opacity="0.99"/><path d="M29,15L25,15L25,240L29,240Z" fill="rgb(22, 21, 21)" fill-opacity="0.32"/><path d="M99,70L205,70L205,82L99,82Z" fill="rgb(207, 230, 219)" fill-opacity="0.47"/><path d="M102,82L118,82L118,113L102,113Z" fill="rgb(197, 219, 209)" fill-opacity="0.87"/><path d="M238,20L242,20L242,76L238,76Z" fill="rgb(47, 47, 48)" fill-opacity="0.53"/><path d="M83,212L109,212L109,231L83,231Z" fill="rgb(50, 50, 50)" fill-opacity="0.43"/><path d="M33,28L28,28L28,226L33,226Z" fill="rgb(76, 76, 76)" fill-opacity="0.33"/><path d="M139,122L143,122L143,135L139,135Z" fill="rgb(201, 224, 214)" fill-opacity="0.59"/><path d="M32,166L121,166L121,155L32,155Z" fill="rgb(48, 48, 48)" fill-opacity="0.26"/><path d="M103,185L110,185L110,193L103,193Z" fill="rgb(49, 49, 49)" fill-opacity="0.50"/><path d="M121,15L218,15L218,56L121,56Z" fill="rgb(48, 30, 26)" fill-opacity="0.50"/><path d="M86,39L120,39L120,63L86,63Z" fill="rgb(42, 42, 42)" fill-opacity="0.59"/><path d="M39,25L45,25L45,71L39,71Z" fill="rgb(39, 39, 39)" fill-opacity="0.56"/><path d="M124,151L129,151L129,229L124,229Z" fill="rgb(36, 36, 36)" fill-opacity="0.48"/><path d="M111,200L130,200L130,208L111,208Z" fill="rgb(45, 45, 45)" fill-opacity="0.54"/><path d="M219,4L226,4L226,70L219,70Z" fill="rgb(47, 47, 47)" fill-opacity="0.78"/><path d="M160,160L218,160L218,175L160,175Z" fill="rgb(16, 16, 16)" fill-opacity="0.10"/><path d="M48,19L57,19L57,64L48,64Z" fill="rgb(44, 44, 44)" fill-opacity="0.20"/><path d="M68,212L83,212L83,235L68,235Z" fill="rgb(2, 2, 2)" fill-opacity="0.56"/><path d="M226,18L232,18L232,67L226,67Z" fill="rgb(64, 64, 64)" fill-opacity="0.39"/><path d="M203,155L220,155L220,236L203,236Z" fill="rgb(48, 48, 48)" fill-opacity="0.19"/><path d="M125,56L215,56L215,57L125,57Z" fill="rgb(85, 90, 90)" fill-opacity="0.36"/><path d="M221,63L228,63L228,178L221,178Z" fill="rgb(43, 43, 43)" fill-opacity="0.57"/><path d="M53,175L58,175L58,238L53,238Z" fill="rgb(21, 22, 22)" fill-opacity="0.36"/><path d="M230,59L226,59L226,249L230,249Z" fill="rgb(48, 48, 49)" fill-opacity="0.39"/><path d="M218,19L219,19L219,51L218,51Z" fill="rgb(22, 16, 15)" fill-opacity="0.98"/><path d="M63,231L88,231L88,235L63,235Z" fill="rgb(8, 8, 8)" fill-opacity="0.53"/><path d="M175,94L200,94L200,98L175,98Z" fill="rgb(220, 245, 234)" fill-opacity="0.45"/><path d="M92,186L101,186L101,191L92,191Z" fill="rgb(17, 17, 17)" fill-opacity="0.69"/><path d="M36,65L42,65L42,151L36,151Z" fill="rgb(32, 31, 31)" fill-opacity="0.43"/><path d="M31,247L143,247L143,250L31,250Z" fill="rgb(7, 7, 7)" fill-opacity="0.29"/><path d="M197,141L195,141L195,156L197,156Z" fill="rgb(42, 42, 42)" fill-opacity="0.85"/><path d="M126,195L151,195L151,201L126,201Z" fill="rgb(22, 22, 22)" fill-opacity="0.44"/><path d="M210,73L214,73L214,77L210,77Z" fill="rgb(1, 2, 2)" fill-opacity="0.66"/><path d="M19,240L26,240L26,265L19,265Z" fill="rgb(255, 255, 255)" fill-opacity="0.77"/><path d="M108,198L84,198L84,211L108,211Z" fill="rgb(0, 0, 0)" fill-opacity="0.54"/><path d="M130,234L146,234L146,238L130,238Z" fill="rgb(6, 6, 6)" fill-opacity="0.47"/><path d="M79,29L67,29L67,36L79,36Z" fill="rgb(161, 161, 161)" fill-opacity="0.62"/><path d="M52,56L221,56L221,64L52,64Z" fill="rgb(50, 54, 54)" fill-opacity="0.18"/><path d="M140,84L171,84L171,124L140,124Z" fill="rgb(195, 218, 208)" fill-opacity="0.70"/><path d="M46,169L50,169L50,225L46,225Z" fill="rgb(43, 43, 43)" fill-opacity="0.47"/><path d="M136,82L181,82L181,87L136,87Z" fill="rgb(200, 222, 212)" fill-opacity="0.65"/><path d="M26,69L28,69L28,232L26,232Z" fill="rgb(16, 16, 16)" fill-opacity="0.87"/><path d="M68,82L70,82L70,122L68,122Z" fill="rgb(71, 79, 75)" fill-opacity="0.70"/><path d="M90,22L120,22L120,62L90,62Z" fill="rgb(43, 44, 44)" fill-opacity="0.39"/><path d="M188,125L195,125L195,135L188,135Z" fill="rgb(31, 34, 33)" fill-opacity="0.41"/><path d="M229,8L235,8L235,20L229,20Z" fill="rgb(19, 18, 19)" fill-opacity="0.45"/><path d="M44,110L63,110L63,122L44,122Z" fill="rgb(220, 244, 233)" fill-opacity="0.64"/><path d="M53,1L165,1L165,-10L53,-10Z" fill="rgb(198, 198, 198)" fill-opacity="0.33"/><path d="M41,153L218,153L218,155L41,155Z" fill="rgb(31, 31, 31)" fill-opacity="0.35"/><path d="M133,81L183,81L183,84L133,84Z" fill="rgb(196, 218, 208)" fill-opacity="0.89"/><path d="M170,238L218,238L218,237L170,237Z" fill="rgb(0, 0, 0)" fill-opacity="0.60"/><path d="M233,21L230,21L230,205L233,205Z" fill="rgb(62, 62, 62)" fill-opacity="0.55"/><path d="M202,81L214,81L214,136L202,136Z" fill="rgb(195, 218, 208)" fill-opacity="0.73"/><path d="M105,212L129,212L129,216L105,216Z" fill="rgb(7, 7, 7)" fill-opacity="0.70"/><path d="M45,179L54,179L54,220L45,220Z" fill="rgb(43, 43, 43)" fill-opacity="0.42"/><path d="M63,142L81,142L81,212L63,212Z" fill="rgb(41, 41, 41)" fill-opacity="0.53"/><path d="M30,8L193,8L193,9L30,9Z" fill="rgb(46, 41, 44)" fill-opacity="0.36"/><path d="M172,176L216,176L216,177L172,177Z" fill="rgb(84, 84, 84)" fill-opacity="0.47"/><path d="M175,63L224,63L224,66L175,66Z" fill="rgb(29, 29, 29)" fill-opacity="0.56"/><path d="M44,136L34,136L34,254L44,254Z" fill="rgb(49, 49, 49)" fill-opacity="0.66"/><path d="M121,125L128,125L128,132L121,132Z" fill="rgb(11, 10, 10)" fill-opacity="0.34"/><path d="M47,88L69,88L69,96L47,96Z" fill="rgb(0, 0, 0)" fill-opacity="0.54"/><path d="M184,191L225,191L225,195L184,195Z" fill="rgb(9, 9, 9)" fill-opacity="0.36"/><path d="M177,114L174,114L174,118L177,118Z" fill="rgb(0, 0, 0)" fill-opacity="0.79"/><path d="M22,26L21,26L21,150L22,150Z" fill="rgb(109, 106, 108)" fill-opacity="0.42"/><path d="M167,74L219,74L219,71L167,71Z" fill="rgb(209, 232, 221)" fill-opacity="0.48"/><path d="M200,183L183,183L183,187L200,187Z" fill="rgb(0, 0, 0)" fill-opacity="0.56"/><path d="M61,108L206,108L206,110L61,110Z" fill="rgb(197, 219, 209)" fill-opacity="0.30"/><path d="M31,20L35,20L35,237L31,237Z" fill="rgb(60, 60, 60)" fill-opacity="0.59"/><path d="M144,125L145,125L145,135L144,135Z" fill="rgb(2, 2, 3)" fill-opacity="0.50"/><path d="M89,177L147,177L147,174L89,174Z" fill="rgb(31, 31, 31)" fill-opacity="0.43"/><path d="M34,237L169,237L169,240L34,240Z" fill="rgb(53, 54, 56)" fill-opacity="0.37"/><path d="M171,140L176,140L176,222L171,222Z" fill="rgb(40, 40, 40)" fill-opacity="0.61"/><path d="M224,66L227,66L227,150L224,150Z" fill="rgb(33, 33, 33)" fill-opacity="0.49"/><path d="M40,245L107,245L107,241L40,241Z" fill="rgb(71, 71, 72)" fill-opacity="0.41"/><path d="M126,214L136,214L136,230L126,230Z" fill="rgb(46, 46, 46)" fill-opacity="0.44"/><path d="M231,97L232,97L232,237L231,237Z" fill="rgb(69, 68, 68)" fill-opacity="0.30"/><path d="M14,-9L40,-9L40,5L14,5Z" fill="rgb(255, 255, 255)" fill-opacity="0.81"/><path d="M224,-6L241,-6L241,5L224,5Z" fill="rgb(255, 255, 255)" fill-opacity="0.83"/></svg>