<svg width="50" height="50" xmlns="http://www.w3.org/2000/svg" fill="none">
 <defs>
  <filter id="svg_3_blur" x="-50%" y="-50%" width="200%" height="200%">
   <feGaussianBlur in="SourceGraphic" stdDeviation="0"/>
  </filter>
 </defs>
 <g>
  <title>Layer 1</title>
  <g id="svg_3" stroke="null">
   <path fill-rule="evenodd" clip-rule="evenodd" d="m19.63326,13.9498c-0.79336,1.33783 -1.4718,4.43549 -2.12627,6.07439c-0.65442,1.63899 -1.6638,2.72963 -1.80052,3.75924c-0.1367,1.0296 -0.15545,1.89852 0.98039,2.41854c1.13582,0.52003 4.52621,0.62812 5.83461,0.70165c1.30836,0.07344 1.27426,-0.00924 2.0157,-0.26075c0.74149,-0.25142 1.91726,-0.76869 2.43302,-1.24813c0.51578,-0.47944 0.93641,-1.19643 0.66172,-1.62836c-0.27471,-0.43192 -1.49231,-0.83837 -2.31001,-0.96307c-0.81774,-0.12477 -2.03298,0.16933 -2.59625,0.21477c-0.56322,0.04551 -0.53372,0.1879 -0.78323,0.0581c-0.24947,-0.12972 -0.8833,-0.21989 -0.71373,-0.83675c0.16953,-0.61685 1.21009,-1.7951 1.73109,-2.86432c0.521,-1.06922 1.19575,-2.44646 1.39502,-3.55122c0.19931,-1.10469 0.1898,-2.44597 -0.1992,-3.07703c-0.38913,-0.631 -1.13497,-0.95011 -1.88873,-0.74959c-0.75365,0.20046 -1.8403,0.61469 -2.63366,1.95253l0.00003,0l0.00001,-0.00001l0.00001,0.00001z" fill="#9DC3E6" id="svg_1" filter="url(#svg_3_blur)" stroke="null"/>
   <path fill-rule="evenodd" clip-rule="evenodd" d="m25.95311,14.66849c0.68708,0.6147 2.8497,1.26602 3.73355,1.63966c0.88382,0.37364 1.40577,0.18788 1.56955,0.60202c0.16389,0.414 0.27432,0.39701 -0.5863,1.88232c-0.86072,1.48547 -3.3383,5.20499 -4.57795,7.02981c-1.2397,1.82483 -1.97294,2.39444 -2.86032,3.91907c-0.88735,1.52463 -2.22663,4.10277 -2.46392,5.22862c-0.23727,1.12595 0.18053,1.36036 1.04023,1.52691c0.85969,0.16642 3.21199,-0.01971 4.11791,-0.52812c0.90595,-0.50829 0.78008,-1.5608 1.31771,-2.52203c0.53763,-0.96123 0.70392,-1.30308 1.90806,-3.24551c1.20416,-1.9423 3.85928,-6.09339 5.31677,-8.40854c1.45733,-2.31512 3.14592,-4.12114 3.42765,-5.48234c0.28177,-1.36108 -0.91264,-1.93295 -1.73745,-2.68459c-0.82495,-0.75163 -2.18761,-1.56122 -3.21171,-1.82526c-1.02414,-0.26419 -1.71617,0.12333 -2.93323,0.24029c-1.21707,0.11696 -3.82784,0.14963 -4.44935,0.57898c-0.62145,0.42947 -0.29827,1.43401 0.3888,2.04872l0,-0.00001z" fill="#5B9BD5" id="svg_2" filter="url(#svg_3_blur)" stroke="null"/>
   <path fill-rule="evenodd" clip-rule="evenodd" d="m20.75323,36.09692c-0.80975,-0.58496 -2.91269,-1.64277 -3.90117,-2.24309c-0.9885,-0.60032 -1.47716,-1.07004 -2.02955,-1.35869c-0.5524,-0.28864 -0.78411,-0.4036 -1.28488,-0.37338c-0.5007,0.03031 -1.53014,0.27496 -1.71962,0.55496c-0.18936,0.28006 0.02272,0.66392 0.583,1.12515c0.56033,0.46131 2.03983,1.15115 2.77868,1.6423c0.73891,0.49124 2.34948,1.67874 3.20484,2.11766c0.85537,0.43894 1.26619,0.4961 1.92752,0.51613c0.66132,0.02003 1.3252,-0.38394 1.39877,-0.71409c0.07358,-0.33015 -0.14774,-0.68191 -0.95755,-1.26696l-0.00001,0.00002l-0.00001,-0.00002l-0.00002,0.00001z" fill="#70AD47" id="svg_8" stroke="null"/>
  </g>
 </g>
</svg>